<svg version="1.1" id="Layer_1" xmlns="http://www.w3.org/2000/svg" xmlns:xlink="http://www.w3.org/1999/xlink" x="0px" y="0px"
	 width="100%" viewBox="0 0 1024 1024" enable-background="new 0 0 1024 1024" xml:space="preserve">
<path fill="#000000" opacity="1.000000" stroke="none" 
	d="
M637.704468,929.879028 
	C615.718445,935.988403 593.603455,938.647400 571.325439,940.377563 
	C545.898254,942.352234 520.429504,943.705933 494.947266,942.823547 
	C458.834320,941.573120 422.698669,939.911987 387.548859,930.310547 
	C374.622833,926.779724 362.202881,921.997253 351.847626,913.051636 
	C337.443451,900.608582 331.852356,884.282532 331.775940,865.871826 
	C331.596832,822.706055 331.722595,779.539124 331.722351,736.372620 
	C331.721619,615.373108 331.684662,494.373627 331.749695,373.374207 
	C331.761658,351.115356 338.362488,331.374146 355.363342,316.066986 
	C366.086182,306.412415 378.853027,300.411133 392.394928,295.864471 
	C394.915436,295.018219 397.447388,294.146271 399.850403,293.022003 
	C405.038422,290.594635 407.606415,286.341400 407.641846,280.667084 
	C407.709473,269.834259 407.554413,258.998871 407.732574,248.168518 
	C407.786255,244.908157 406.284821,243.494476 403.590332,242.226913 
	C397.746796,239.477859 393.295074,235.452194 392.729950,228.435226 
	C392.426147,224.663055 393.673096,223.296112 397.668518,224.325516 
	C441.796967,235.695267 486.844513,237.756104 532.070190,236.515594 
	C563.556458,235.651901 594.880127,232.457199 625.571899,224.737442 
	C631.784302,223.174866 633.366150,225.010101 631.604492,231.396210 
	C630.200928,236.484238 626.410156,239.463715 622.070007,241.756165 
	C619.183716,243.280655 618.089539,245.320450 618.132202,248.541473 
	C618.264893,258.539551 618.156738,268.540619 618.167297,278.540527 
	C618.177185,287.925964 621.128540,292.120697 630.291992,294.971558 
	C637.954529,297.355469 645.374451,300.255310 652.515625,303.902985 
	C678.697815,317.276764 692.318787,338.510315 692.329529,368.049591 
	C692.379700,505.715454 692.360657,643.381287 692.371826,781.047180 
	C692.373840,805.213745 692.259827,829.381653 692.493652,853.546082 
	C692.577576,862.209473 692.907471,870.825745 691.391785,879.417053 
	C688.023254,898.511414 677.467224,912.226624 660.407227,921.088013 
	C653.292419,924.783569 645.836914,927.657349 637.704468,929.879028 
M348.257629,537.500000 
	C348.258179,613.988403 348.241760,690.476746 348.275696,766.965149 
	C348.281433,779.927124 355.479675,789.101807 367.442108,791.434753 
	C402.009521,798.176331 436.968018,801.632996 472.121246,802.591797 
	C503.426422,803.445618 534.755554,803.578064 566.066101,801.960510 
	C596.525574,800.387085 626.829285,797.517334 656.804138,791.757141 
	C670.115173,789.199158 676.841919,780.838684 676.843384,767.177490 
	C676.854858,658.194214 676.848083,549.210938 676.822632,440.227692 
	C676.819092,424.965302 668.260132,417.944824 653.333923,420.658203 
	C626.107544,425.607605 598.622803,428.385681 571.028992,430.147308 
	C542.234558,431.985657 513.398499,431.624908 484.579590,431.252075 
	C450.574402,430.812134 416.740753,427.989655 383.155273,422.489136 
	C378.556396,421.735962 373.945496,421.055328 369.349457,420.285645 
	C357.224670,418.255066 348.317261,425.569946 348.279175,438.015320 
	C348.178741,470.843262 348.253326,503.671722 348.257629,537.500000 
M586.158569,902.637268 
	C608.346375,900.374756 630.557373,898.339417 652.410217,893.562927 
	C669.475586,889.832886 676.585815,881.436462 676.673584,863.973145 
	C676.768250,845.141846 676.717712,826.309570 676.660400,807.477966 
	C676.655762,805.967957 677.417175,804.132385 675.405212,802.810486 
	C673.065063,804.571899 669.462463,804.818542 669.589722,809.241577 
	C669.900879,820.063599 670.089600,830.895752 669.989258,841.720642 
	C669.929260,848.193542 669.632568,854.710083 668.225830,861.071838 
	C665.792480,872.076355 660.641418,880.819336 649.162231,884.725281 
	C641.898499,887.196838 634.617676,889.538635 627.133667,891.190063 
	C596.398193,897.972412 565.112671,899.297424 533.819763,900.179077 
	C502.161346,901.071106 470.514374,900.242432 438.985779,897.159302 
	C419.749359,895.278259 400.635498,892.286987 382.353943,885.623047 
	C370.342407,881.244568 366.805115,875.861572 366.793152,863.074280 
	C366.777924,846.742310 366.803619,830.410217 366.766327,814.078369 
	C366.761932,812.152710 367.349854,809.640747 364.936005,808.841003 
	C360.917847,807.509583 357.174805,805.163025 352.846954,804.936340 
	C351.611359,807.232788 351.971985,809.436401 351.945709,811.571533 
	C351.722229,829.730469 352.217041,847.889282 351.585663,866.052673 
	C351.065765,881.009155 357.885071,889.483215 372.257507,892.954834 
	C380.033508,894.833008 387.880463,896.242188 395.794617,897.431702 
	C424.322998,901.719727 453.032928,903.817688 481.835571,904.675842 
	C516.324646,905.703430 550.791870,904.933228 586.158569,902.637268 
M451.753235,271.500977 
	C451.760406,267.003510 451.597595,262.497253 451.830383,258.011505 
	C452.005310,254.640274 450.671356,253.356995 447.389557,252.862106 
	C439.664551,251.697205 431.970154,250.282211 424.317047,248.707489 
	C420.451447,247.912094 420.113464,250.005920 420.117706,252.843567 
	C420.133820,263.670746 420.090118,274.498138 420.144775,285.325073 
	C420.160858,288.513062 420.280518,291.820099 418.998352,294.681671 
	C417.060547,299.006561 419.035706,300.811096 422.695801,302.043793 
	C424.272095,302.574677 425.825409,303.180634 427.418488,303.653809 
	C446.860016,309.428284 466.880585,311.695831 487.008087,312.590027 
	C508.468231,313.543396 529.973877,313.668854 551.411133,311.674347 
	C567.818237,310.147858 584.202881,308.363739 600.036865,303.453400 
	C608.513062,300.824799 608.471130,300.741180 607.766174,292.235321 
	C607.642700,290.745117 607.696899,289.238922 607.695557,287.740112 
	C607.685425,276.579590 607.704346,265.418976 607.655640,254.258636 
	C607.647095,252.302032 608.073364,250.251465 606.942749,248.435730 
	C596.758240,247.747147 595.175354,249.170074 595.183044,258.951752 
	C595.190979,269.112762 595.113037,279.274811 595.235718,289.434418 
	C595.300537,294.803467 592.884705,298.324219 587.990479,300.184448 
	C585.665039,301.068359 583.270569,301.850189 580.841492,302.370331 
	C549.184998,309.148956 517.152954,309.964386 484.993652,308.015747 
	C477.209930,307.544098 469.403748,306.852936 461.711670,305.268005 
	C453.981598,303.675262 451.828461,301.307678 451.784485,293.489105 
	C451.745148,286.493134 451.761383,279.496826 451.753235,271.500977 
M351.435120,363.019012 
	C351.435120,376.894073 351.435120,390.769135 351.435120,405.180054 
	C356.121063,403.288239 360.168365,402.205261 364.301239,402.101776 
	C368.210907,402.003906 368.966675,400.078735 368.898254,396.708191 
	C368.752899,389.545441 368.848450,382.377319 368.881775,375.211578 
	C368.977386,354.647461 380.334473,340.079254 400.211945,334.812714 
	C412.459259,331.567749 424.869476,331.078278 437.393463,332.336823 
	C443.527710,332.953247 446.021271,332.922119 449.247406,331.682465 
	C439.582123,329.267639 429.912354,327.337891 421.128021,322.727661 
	C413.321930,318.630859 412.274689,315.910736 415.239899,307.998962 
	C413.960541,306.175232 412.416504,305.148132 410.261963,306.686432 
	C405.561279,310.042694 400.048248,311.481781 394.739532,313.431671 
	C371.631439,321.919495 354.842560,336.042755 351.435120,363.019012 
M672.421326,352.188202 
	C666.841980,334.687469 654.244995,324.040375 638.073364,316.767181 
	C630.960754,313.568329 623.145630,311.935242 616.719666,307.194000 
	C615.777588,306.498932 614.678406,305.991302 613.500793,306.852264 
	C612.180969,307.817169 612.244568,309.095276 612.712891,310.436859 
	C614.565430,315.743896 612.034912,319.068878 607.661316,321.497040 
	C600.338867,325.562408 592.576111,328.501373 584.391663,330.276886 
	C575.984558,332.100677 567.617554,334.127747 559.059753,335.269501 
	C566.371948,335.164917 573.668335,335.069336 580.895569,334.313049 
	C595.842224,332.748901 610.688171,332.063751 625.625977,334.798004 
	C646.627625,338.642212 661.081665,351.676270 665.064087,371.365173 
	C666.753479,379.717682 666.757935,388.200287 666.491150,396.704987 
	C666.294006,402.990997 667.574768,404.028442 674.203064,404.070099 
	C675.249512,399.689667 674.775635,395.188080 674.674805,390.757019 
	C674.387878,378.145966 676.080750,365.415802 672.421326,352.188202 
M403.843506,905.347351 
	C395.909637,904.239380 387.975769,903.131470 379.446594,901.940430 
	C385.123016,909.360168 410.378540,916.572205 427.683563,916.011230 
	C418.949219,913.675293 411.401855,910.395874 403.843506,905.347351 
M604.265259,914.877380 
	C603.855530,915.071106 603.445740,915.264893 602.755371,915.591248 
	C625.435974,913.868286 642.562256,908.792786 646.995483,901.954773 
	C640.443481,903.017761 634.460388,904.000854 628.472595,904.954468 
	C625.706299,905.395020 622.805603,905.335144 620.438354,907.190491 
	C615.784119,910.837952 610.303894,912.761169 604.265259,914.877380 
z"/>
<path fill="#000000" opacity="1.000000" stroke="none" 
	d="
M575.498413,137.448517 
	C591.308594,135.512711 606.687195,133.768875 621.876709,130.716095 
	C636.093445,127.858826 650.075134,124.308792 662.449463,116.613098 
	C664.492798,118.290504 664.017029,120.246826 664.020752,122.002106 
	C664.070679,145.494949 664.023804,168.988129 664.119446,192.480728 
	C664.153748,200.914352 659.293579,206.043991 652.688904,209.932129 
	C641.324402,216.622345 628.646790,219.616257 615.923828,222.269272 
	C594.049988,226.830490 571.888611,229.022858 549.597290,230.452118 
	C529.122986,231.764862 508.647339,231.971481 488.197693,231.170517 
	C453.725342,229.820297 419.379272,227.076828 386.268250,216.236923 
	C378.792908,213.789658 371.617493,210.679367 365.491180,205.585922 
	C361.888977,202.591034 359.572815,198.994400 359.588043,194.024231 
	C359.662994,169.543045 359.619568,145.061478 359.650299,120.580101 
	C359.651855,119.324135 359.222412,117.890839 361.002563,116.503365 
	C369.331360,121.610184 378.610901,125.022423 388.254333,127.624748 
	C408.598907,133.114853 429.444458,135.471680 450.300262,137.583145 
	C479.847778,140.574554 509.511078,140.517853 539.159790,139.666092 
	C551.133972,139.322083 563.087708,138.261826 575.498413,137.448517 
z"/>
<path fill="#000000" opacity="1.000000" stroke="none" 
	d="
M573.212036,132.320618 
	C547.026550,134.575790 521.249939,136.104492 495.437653,135.062698 
	C462.021973,133.714035 428.624695,131.795654 395.868286,124.241737 
	C386.940247,122.182861 378.082428,119.829590 369.903290,115.547043 
	C358.316193,109.480118 357.891968,101.950890 368.882263,94.729240 
	C379.497925,87.753746 391.616241,84.580727 403.806549,81.771904 
	C426.077667,76.640297 448.677277,73.988136 471.477600,72.602837 
	C488.262238,71.583038 505.041962,70.414696 521.852295,70.972076 
	C556.475403,72.120110 590.993164,74.415192 624.791077,82.799805 
	C634.996582,85.331604 644.984985,88.498817 654.066895,93.989319 
	C655.488098,94.848518 656.899719,95.764359 658.166870,96.830910 
	C664.884399,102.485275 664.816040,108.067421 657.686279,113.153633 
	C649.368286,119.087433 639.528076,121.321381 629.840759,123.696754 
	C611.382690,128.222748 592.554810,130.472977 573.212036,132.320618 
M451.146912,87.745651 
	C442.918091,89.145020 434.860901,91.152000 427.319122,94.827477 
	C425.415863,95.755013 423.109985,96.708893 423.304962,99.378487 
	C423.489990,101.911995 425.715515,102.804237 427.693848,103.678940 
	C432.131744,105.641068 436.822418,106.850914 441.562897,107.721237 
	C485.504852,115.788666 529.557007,115.583069 573.668335,109.257713 
	C581.085876,108.194084 588.420654,106.653442 595.471985,104.063217 
	C597.762390,103.221863 600.498718,102.296104 600.612122,99.274208 
	C600.719482,96.410576 598.044006,95.602020 596.024597,94.592087 
	C591.092651,92.125504 585.862793,90.411682 580.471252,89.314026 
	C537.756897,80.617859 494.910919,80.916664 451.146912,87.745651 
z"/>
</svg>